# File exported by Houdini 18.5.462 (www.sidefx.com)
# 103 points
# 340 vertices
# 69 primitives
# Bounds: [-23.9158401, -2.5, -8.80490112] to [23.9158401, 2.5, 8.80490112]
g 
v -18.4173431 1.51999474 7.06919098
v -21.2347794 2.08592701 4.41099548
v -18.6482162 2.3613205 6.05374146
v -16.424675 -1.66070175 6.42042542
v -13.9190674 -0.454713821 3.77129364
v -21.5875931 2.28805733 6.47039032
v -21.7165451 2.29805946 6.05892944
v -20.6685791 2.07743073 6.86312866
v -21.566658 2.35385323 6.44959259
v -21.1327438 2.38072205 6.58180237
v -20.7057877 2.5 6.6727829
v -18.7027359 2.5 6.27023315
v -20.3278885 2.21818733 6.91651917
v -18.5029831 1.78049278 7.08496094
v -18.5892029 2.5 5.97076416
v -17.9964294 1.2687149 7.28782654
v -14.618187 -1.51899719 8.39063263
v -18.316658 1.57731819 7.16555023
v -15.5068359 2.5 3.9076767
v -14.8166122 2.5 4.57569885
v -14.1286774 0.513366699 7.57589722
v -13.5805435 -1.20075417 8.25955963
v -14.7952805 2.5 5.46986389
v -14.4320297 2.5 6.782341
v -1.23681641 -2.47535992 -7.49230957
v 1.38954926 -2.28430271 -5.00801849
v -0.566070557 -0.620961189 -3.8323288
v 1.65409851 -0.952735901 -5.35820007
v -1.22396851 -2.5 -7.49319458
v 1.23564148 -2.5 -5.25788116
v -1.16873932 -2.5 -7.53990936
v 1.60001373 -2.5 -5.09377289
v 2.67385101 -2.5 -5.69776917
v -6.37487793 2.04359627 -6.74891663
v -3.2983551 1.82419014 -5.95030975
v -3.77866364 2.5 -6.10208893
v -5.61443329 2.5 -6.5730896
v -2.87227631 -1.01994896 -8.00543976
v -6.18861389 1.47821236 -6.97673035
v -6.68959808 1.97494888 -6.77358246
v -3.51300812 2.4755249 -6.60151672
v -3.53803253 2.5 -6.59149933
v -0.875137329 -1.68219471 -8.28806305
v -0.212882996 2.5 -5.58306885
v -2.14123535 2.5 -6.06137848
v -3.43894958 2.5 -6.59237671
v 0.0191802979 -2.5 -8.62312317
v 3.07417297 0.478357315 -7.45883179
v 2.73294067 0.724015236 -7.35753632
v 0.977912903 2.5 -6.63154602
v 4.01515961 -0.637763023 -7.91363525
v 4.3319397 -2.5 -7.39194489
v 5.08718109 -2.5 -7.87753296
v 5.13772583 -1.53932095 -8.28423309
v 5.22386169 -2.5 -8.66928101
v -22.9533615 -2.5 -7.58930206
v -23.8087387 -2.5 -5.09142303
v -23.9158401 -2.5 5.49629211
v -23.1108322 -2.5 7.98379517
v -20.6285934 -2.5 8.80490112
v 20.6132736 -2.5 8.65485382
v 23.0993347 -2.5 7.8155899
v 23.9158401 -2.5 5.32195282
v 23.8562088 -2.5 -5.51353455
v 23.0123138 -2.5 -7.9967804
v 20.5171967 -2.5 -8.80490112
v -20.4544067 -2.5 -8.44156647
v -21.9126511 2.5 5.19059753
v -21.8121109 2.5 -4.74864197
v -21.3791122 2.5 -6.01308441
v -20.1141205 2.5 -6.44450378
v 5.91835022 2.5 -6.67536163
v 6.18548584 2.5 -6.54376221
v 4.88130951 2.5 -5.30717468
v 8.46767426 2.5 -6.00689697
v 8.66501617 2.5 -6.69972229
v 19.1558075 2.5 -6.79275513
v 20.5215607 2.5 -6.06587982
v 19.5343933 2.5 -4.07460022
v 19.4172745 2.5 -3.57962799
v 19.2326508 2.5 -3.44091034
v 19.5968857 2.5 -2.94813538
v 21.215004 2.5 -2.68058777
v 21.8694077 2.5 -3.1089859
v 21.9140854 2.5 5.00821686
v 21.5103912 2.5 6.24110413
v 20.28125 2.5 6.65605164
v -21.5201645 2.5 6.40339661
v 22.0488205 2.04947853 -3.25457764
v 22.2914658 1.42995071 -4.19335938
v 22.6163177 0.604511261 -5.16240692
v 22.6397018 0.54404068 -5.30903625
v 18.0939407 1.2600975 -7.27931213
v 8.05838776 1.18211937 -7.22151184
v 7.48316193 1.82852364 -6.95783997
v 20.3791885 -0.253388405 -7.90499878
v 22.2648392 -0.120704651 -7.23847961
v 21.938324 -0.442286491 -7.47944641
v 21.1227493 -0.666036606 -7.83766937
v 22.3982849 -0.144954681 -6.87594604
v 8.27986908 2.12905693 -6.0938797
v 20.7234497 0.163419724 -5.81034851
v 19.2362671 2.25024223 -3.40239716
vt 0.232306093 0.602749884 0.369550705
vt 0.228950381 0.587990403 0.297346294
vt 0.19135499 0.564113319 0.320981175
vt 0.261269301 0.593320131 0.642524958
vt 0.297688007 0.554815292 0.539024472
vt 0.186226875 0.594046354 0.303633898
vt 0.199584633 0.599754751 0.321710348
vt 0.184352577 0.588065863 0.302775502
vt 0.192838073 0.595665753 0.295681238
vt 0.186531186 0.593744099 0.297987163
vt 0.19904381 0.596988142 0.285444528
vt 0.228157938 0.591137111 0.285444528
vt 0.204536557 0.600530803 0.309630305
vt 0.231061339 0.602979064 0.347194195
vt 0.229808152 0.586784363 0.285444528
vt 0.238424033 0.605927706 0.391116083
vt 0.287526369 0.621956885 0.630363584
vt 0.233769536 0.604150414 0.364631087
vt 0.274609983 0.556797624 0.285444528
vt 0.284642279 0.56650722 0.285444528
vt 0.294641376 0.610114813 0.455941707
vt 0.284952343 0.579503834 0.285444528
vt 0.30260843 0.620051742 0.603051305
vt 0.290232182 0.598580539 0.285444528
vt 0.48202306 0.391100168 0.712440729
vt 0.491772264 0.444297552 0.553292215
vt 0.520196974 0.42720902 0.696043789
vt 0.52404213 0.4221192 0.581765831
vt 0.517959952 0.423577309 0.714555383
vt 0.482209802 0.391087294 0.714555383
vt 0.483012527 0.390408307 0.714555383
vt 0.523256063 0.425962597 0.714555383
vt 0.538864136 0.417183578 0.714555383
vt 0.407341927 0.401905298 0.324614078
vt 0.418394893 0.404460907 0.285444528
vt 0.445077598 0.411306858 0.285444528
vt 0.452058822 0.413512945 0.34344399
vt 0.458251834 0.383641869 0.587534189
vt 0.41004926 0.398594022 0.37313658
vt 0.402767509 0.401546776 0.33050555
vt 0.448938876 0.404047728 0.287545025
vt 0.448575139 0.404193342 0.285444528
vt 0.487280011 0.379533976 0.644369543
vt 0.496905804 0.41885075 0.285444528
vt 0.468877435 0.411898553 0.285444528
vt 0.450015306 0.404180586 0.285444528
vt 0.500278831 0.374663919 0.714555383
vt 0.539722979 0.393059075 0.43786341
vt 0.544682741 0.391586751 0.458946288
vt 0.51421386 0.403611243 0.285444528
vt 0.558359921 0.384976238 0.55473417
vt 0.562964261 0.392558932 0.714555383
vt 0.574676275 0.379589647 0.632107854
vt 0.573941588 0.385500968 0.714555383
vt 0.575928271 0.373993009 0.714555383
vt 0.166375607 0.389690399 0.714555383
vt 0.202697605 0.377302825 0.714555383
vt 0.798215091 0.372021794 0.714555383
vt 0.834481359 0.383767724 0.714555383
vt 0.846747279 0.419861436 0.714555383
vt 0.847613931 0.577353954 0.714555383
vt 0.835746169 0.613598704 0.714555383
vt 0.799611568 0.625797272 0.714555383
vt 0.200165838 0.627978206 0.714555383
vt 0.164086789 0.616043508 0.714555383
vt 0.152386099 0.579887986 0.714555383
vt 0.153942794 0.425996751 0.714555383
vt 0.181502193 0.575444698 0.285444528
vt 0.187206954 0.593072653 0.285444528
vt 0.794785619 0.596744955 0.285444528
vt 0.812651038 0.590713739 0.285444528
vt 0.818518698 0.572793841 0.285444528
vt 0.817869306 0.454811245 0.285444528
vt 0.808357596 0.461037964 0.285444528
vt 0.784838438 0.457149208 0.285444528
vt 0.779544353 0.449986756 0.285444528
vt 0.782227874 0.44797051 0.285444528
vt 0.783930182 0.440776169 0.285444528
vt 0.798278511 0.411833137 0.285444528
vt 0.778427482 0.401268095 0.285444528
vt 0.625945032 0.402620316 0.285444528
vt 0.623076677 0.412690461 0.285444528
vt 0.570949316 0.422860831 0.285444528
vt 0.589905322 0.40488717 0.285444528
vt 0.586022556 0.402974397 0.285444528
vt 0.207643628 0.4063299 0.285444528
vt 0.189257145 0.412600517 0.285444528
vt 0.18296355 0.430979043 0.285444528
vt 0.829065442 0.422833771 0.453309208
vt 0.828725576 0.424965024 0.448119491
vt 0.824003875 0.439050019 0.377278477
vt 0.820477068 0.452695101 0.324109256
vt 0.762993336 0.394196033 0.391855657
vt 0.796209157 0.385101765 0.521746278
vt 0.608766913 0.39886862 0.343072087
vt 0.617127776 0.395036161 0.398547918
vt 0.80701673 0.386080384 0.557160676
vt 0.818871021 0.391287118 0.537957966
vt 0.823616862 0.394789547 0.510359108
vt 0.825556517 0.400058925 0.512440264
vt 0.620346963 0.411426187 0.317279667
vt 0.801212907 0.415547252 0.485974938
vt 0.779596925 0.450546563 0.306879282
vn -0.4639633 0.627444744 0.625340819
vn -0.46396333 0.627444744 0.625340819
vn -0.46396333 0.627444744 0.625340879
vn 0.84710151 0.487584084 0.211378425
vn 0.84710145 0.487584084 0.211378425
vn 0.84710145 0.487584054 0.21137841
vn 0.576829195 0.384597242 0.720661521
vn 0.576829195 0.384597212 0.720661521
vn 0.576829195 0.384597242 0.720661581
vn 0.244593412 0.96816957 -0.0531206094
vn 0.244594008 0.968169212 -0.0531222522
vn 0.244594038 0.968169212 -0.0531224571
vn 0.244594365 0.968169153 -0.0531228259
vn 0.244597375 0.968168497 -0.0531218685
vn 0.0206539333 -0.990822375 0.133582979
vn 0.0206540674 -0.990822434 0.133583039
vn 0.0206543356 -0.990822434 0.133582622
vn 0.02065349 -0.99082303 0.133578658
vn 0.0206518881 -0.990822315 0.133583754
vn 0.111699164 -0.823774159 0.555805147
vn 0.111698344 -0.823772848 0.555807292
vn 0.11170017 -0.823767066 0.555815578
vn 0.11170128 -0.823766708 0.555815697
vn 0.11463891 0.0975155383 -0.988609433
vn 0.114643969 0.0975377336 -0.988606632
vn 0.114641577 0.0975369662 -0.98860693
vn 0.11463739 0.0975191519 -0.988609314
vn 0.919325411 -0.182668999 0.348529547
vn 0.919325411 -0.182668999 0.348529518
vn 0.919325411 -0.182668999 0.348529518
vn 0.616064906 0.508632004 -0.601462901
vn 0.616066992 0.508637011 -0.601456463
vn 0.616066754 0.508637309 -0.601456344
vn 0.616065383 0.508636713 -0.601458311
vn 0.595359683 0.24210611 -0.766114533
vn 0.595359743 0.24210611 -0.766114533
vn 0.595359683 0.24210611 -0.766114533
vn 0.538257658 0.252125204 0.804183722
vn 0.538256764 0.252122551 0.804185271
vn 0.538256645 0.252122492 0.804185331
vn 0.538256109 0.252126276 0.804184437
vn 0.571279347 0.288322061 -0.768446565
vn 0.571279407 0.288322061 -0.768446624
vn 0.571279347 0.288322031 -0.768446624
vn -0.644174159 -0.376880407 0.665583074
vn -0.644174099 -0.376880437 0.665583074
vn -0.644174099 -0.376880407 0.665583074
vn -0.954838157 -0.296252489 0.0227693208
vn -0.954840958 -0.296242863 0.022779312
vn -0.954838693 -0.296250105 0.022779258
vn -0.95483911 -0.296249181 0.0227753855
vn -0.954838753 -0.296250343 0.022775162
vn -0.267981559 0.946911454 0.177608088
vn -0.267981797 0.946911454 0.177607819
vn -0.267980933 0.946911931 0.177606985
vn -0.267980725 0.946911693 0.177608043
vn -0.962974668 -0.0405822806 0.266519904
vn -0.962974668 -0.0405822806 0.266519904
vn -0.962974668 -0.0405822806 0.266519904
vn 0.389016479 0.791066349 -0.472101808
vn 0.389016509 0.791066408 -0.472101897
vn 0.389016449 0.791066349 -0.472101837
vn -0.57366389 -0.0998296589 -0.812984586
vn -0.573663831 -0.0998296514 -0.812984526
vn -0.573663831 -0.0998296589 -0.812984526
vn 0.629269123 0.352984667 -0.692403138
vn 0.629245102 0.353065193 -0.692384005
vn 0.629244387 0.353065968 -0.692384243
vn 0.629265487 0.352982879 -0.69240737
vn 0.616960943 0.295498908 0.72941047
vn 0.616961002 0.295498937 0.72941047
vn 0.616960883 0.295498937 0.72941047
vn 0.326447099 0.606691301 -0.724815845
vn 0.326447129 0.606691301 -0.724815845
vn 0.326447129 0.60669136 -0.724815845
vn -0.486025393 -0.130688563 -0.86411798
vn -0.486032307 -0.130686253 -0.864114404
vn -0.486033887 -0.13068749 -0.86411345
vn -0.486033112 -0.130698457 -0.86411202
vn 0.248311415 -0.0408818983 -0.967817187
vn 0.24831143 -0.0408819206 -0.967817247
vn 0.24831143 -0.0408819169 -0.967817247
vn 0.2483114 -0.0408819132 -0.967817187
vn 0.625742972 0.761977136 0.166843191
vn 0.625742912 0.761977077 0.166843176
vn 0.625742972 0.761977136 0.166843191
vn 0.179230124 -0.522029698 -0.833883405
vn 0.179222837 -0.522040904 -0.833877981
vn 0.179225266 -0.522055626 -0.833868206
vn 0.179231256 -0.522028744 -0.833883762
vn 0.524522066 0.71685946 -0.459335536
vn 0.524522185 0.716858685 -0.459336519
vn 0.524522305 0.716858685 -0.459336549
vn 0.524523795 0.716860175 -0.459332526
vn -0.722414434 -0.593236983 -0.355228662
vn -0.722436845 -0.593222499 -0.355206877
vn -0.722437859 -0.593222678 -0.35520497
vn -0.722417295 -0.593253672 -0.355194837
vn 0.304110318 0.60202986 0.73829329
vn 0.304110318 0.60202986 0.738293231
vn 0.304110289 0.60202986 0.738293231
vn 0.209000349 -0.496321231 -0.842605472
vn 0.208998248 -0.496321291 -0.842606008
vn 0.208995819 -0.496323466 -0.842605352
vn 0.208999306 -0.496328771 -0.842601359
vn 0.295644224 -0.624946833 -0.722520649
vn 0.295697629 -0.624925613 -0.722516954
vn 0.295676976 -0.624828756 -0.722609282
vn 0.295642108 -0.624943733 -0.722524107
vn 0.618059099 0.398230225 0.677802086
vn 0.618070602 0.398191035 0.677814603
vn 0.618070185 0.398190469 0.677815318
vn 0.618060052 0.39819923 0.67781949
vn -0.545911789 -0.473196715 -0.691422522
vn -0.545911849 -0.473196864 -0.691422522
vn -0.545911491 -0.473197371 -0.691422403
vn -0.545911431 -0.473197222 -0.691422641
vn -0.624463856 -0.327179313 -0.709223926
vn -0.62446183 -0.327180296 -0.709225297
vn -0.624462962 -0.32717523 -0.709226608
vn -0.624464512 -0.327177823 -0.709224045
vn -0.681165516 -0.302629173 -0.666655064
vn -0.68116498 -0.302629262 -0.666655719
vn -0.681165397 -0.302627265 -0.666656196
vn -0.681166291 -0.30262816 -0.666654706
vn -0.681165636 -0.302629322 -0.666655064
vn -0.513936102 -0.311350405 -0.799331486
vn -0.513938725 -0.311350346 -0.799329638
vn -0.513939917 -0.311352551 -0.799328089
vn -0.513935447 -0.311353803 -0.799330473
vn -0.985223711 -0.0201669037 -0.170080557
vn -0.98522377 -0.0201669037 -0.170080572
vn -0.98522383 -0.0201669056 -0.170080587
vn -0 -1 -0
vn -0 -1 -0
vn -0 -1 -0
vn -0 -1 -0
vn 0 -0.99999994 -0
vn 0 -1 0
vn -0 -1 0
vn 0 -1 0
vn -0 -1 -0
vn 0 -1 0
vn -0 -1 -0
vn -0 -1 -0
vn -0 -1 -0
vn -0 -1 -0
vn -0 -1 -0
vn -0 -1 -0
vn -0 -1 -0
vn 0 -1 -0
vn -0 -1 -0
vn -0 -1 0
vn -0 -1 -0
vn -0 1 0
vn -0 1 -0
vn 0 1 -0
vn -0 1 -0
vn 0 1 0
vn 0 1 0
vn 0 1 0
vn -0 1 -0
vn 0 1 -0
vn -0 1 -0
vn -0 1 -0
vn -0 1 -0
vn -0 1 -0
vn -0 0.99999994 0
vn 0 1 0
vn 0 1 -0
vn -0 1 -0
vn 0 0.99999994 0
vn -0 1 -0
vn -0 1 -0
vn -0 1 -0
vn 0 1 0
vn -0 0.99999994 -0
vn -0 1 -0
vn -0 1 -0
vn -0 1 -0
vn -0 1 0
vn 0 1 0
vn -0 1 -0
vn -0 1 -0
vn -0 1 0
vn -0 1 -0
vn -0 1 -0
vn -0 1 -0
vn -0 1 -0
vn -0.878401101 0.371389776 -0.30080089
vn -0.878400862 0.371389747 -0.300801665
vn -0.878400743 0.371390074 -0.300801635
vn -0.878401041 0.371389955 -0.30080089
vn -0.29970488 0.371390283 -0.878775358
vn -0.299702495 0.371389896 -0.878776431
vn -0.299702317 0.371391058 -0.878776014
vn -0.29970482 0.371390879 -0.87877512
vn 0.928462863 0.371390074 -0.00510964496
vn 0.92846328 0.371389091 -0.00509341992
vn 0.928471744 0.371368289 -0.00508344406
vn 0.928449571 0.371422887 -0.00513736485
vn 0.928459644 0.371398062 -0.00511841569
vn 0.928460538 0.371395767 -0.0051103211
vn 0.928462744 0.371390253 -0.00511033321
vn 0.928462744 0.371390313 -0.00510964449
vn 0.882379174 0.371390402 0.28892231
vn 0.882378578 0.371390313 0.288924307
vn 0.88237828 0.371391207 0.288924187
vn 0.882378995 0.371390879 0.28892225
vn 0.296976298 0.371390998 0.879700959
vn 0.29697907 0.371391594 0.879699767
vn 0.296979249 0.371390194 0.879700243
vn 0.296976417 0.371390402 0.879701257
vn -0.883370876 0.3713893 0.285877287
vn -0.883371115 0.37138927 0.28587693
vn -0.883355081 0.371430486 0.285872936
vn -0.883368254 0.371390939 0.285883605
vn -0.883370876 0.371389627 0.28587687
vn -0.883370817 0.371389955 0.28587687
vn -0.883370697 0.371389925 0.285877168
vn -0.928429544 0.371389776 -0.00939165242
vn -0.928429484 0.371389776 -0.009391509
vn -0.928429604 0.371389538 -0.00939150993
vn -0.928429663 0.371389508 -0.00939165335
vn -0.00823634677 0.371388435 -0.928441048
vn -0.00823505409 0.371390074 -0.928440392
vn -0.00823333859 0.371390164 -0.928440511
vn -0.00823334325 0.371388465 -0.928441107
vn -0.00824061502 0.37138781 -0.928441167
vn -0.00826204196 0.371364892 -0.928450227
vn -0.00826052763 0.371365935 -0.92844981
vn -0.0082496684 0.371378988 -0.928444684
vn -0.00823411904 0.37139225 -0.928439558
vn -0.00823412742 0.371389747 -0.928440511
vn -0.00823496748 0.371388108 -0.928441167
vn -0.00823425222 0.371388614 -0.928440988
vn -0.00823345967 0.371388376 -0.928441167
vn -0.00823346712 0.37138629 -0.928441942
vn -0.00823326595 0.371390939 -0.928440034
vn -0.00823357236 0.371390939 -0.928440094
vn -0.00823356025 0.371394366 -0.928438783
vn -0.00824980997 0.371417761 -0.928429246
vn -0.00824222062 0.371387392 -0.928441346
vn -0.00821302179 0.371412784 -0.928431511
vn -0.00823752396 0.37138474 -0.928442478
vn -0.0082396809 0.371379256 -0.928444684
vn -0.00823328737 0.371385276 -0.928442359
vn -0.00822072383 0.371566623 -0.92836988
vn -0.0082207229 0.371566594 -0.92836982
vn -0.00822072383 0.371566623 -0.928369939
vn 0.286085069 0.371389896 -0.883303404
vn 0.286090195 0.371389598 -0.883301854
vn 0.286085755 0.371380866 -0.883306861
vn 0.286075085 0.371407539 -0.883299232
vn 0.286090583 0.371392667 -0.883300424
vn 0.286084861 0.371391624 -0.883302689
vn 0.879103363 0.371384442 -0.29874891
vn 0.879100382 0.371389836 -0.298750848
vn 0.879100859 0.371389896 -0.298749596
vn 0.879100621 0.371390402 -0.298749566
vn 0.879101276 0.371390015 -0.298747808
vn 0.00327655044 0.371297926 0.928507984
vn 0.00337209669 0.371373445 0.928477466
vn 0.00337690138 0.371390849 0.928470492
vn 0.00337798754 0.37139076 0.928470492
vn 0.00337798777 0.371390164 0.928470731
vn 0.00337784179 0.371390134 0.928470731
vn 0.00337784109 0.371391207 0.928470314
vn 0.00336954137 0.371390074 0.92847085
vn 0.00337721803 0.37139222 0.928469956
vn 0.00337748416 0.371391505 0.928470194
vn 0.00335581182 0.371369123 0.928479314
vn -0.291583031 0.371397287 0.881500602
vn -0.29158625 0.371344477 0.881521821
vn -0.291591942 0.371376812 0.881506324
vn -0.2915892 0.371398479 0.881498098
vn -0.291589975 0.371388733 0.881501853
vn -0.29159373 0.371389449 0.881500423
vn -0.291593522 0.371390969 0.881499887
vn -0.291583329 0.371391565 0.881502926
vn -0.291586071 0.37139976 0.881498635
vn 0.255988419 0.815149844 -0.519615889
vn 0.255984277 0.815144539 -0.51962626
vn 0.255992025 0.815131903 -0.519641995
vn 0.255989611 0.81514895 -0.519616604
vn 0.141321465 0.978679538 0.14904575
vn 0.141321465 0.978679597 0.149045765
vn 0.141321465 0.978679538 0.149045736
vn -0.182005897 0.310893893 -0.932855248
vn -0.182005897 0.310893893 -0.932855189
vn -0.182005897 0.310893863 -0.932855189
vn 0.436974376 0.644704998 -0.627223253
vn 0.436974376 0.644704938 -0.627223194
vn 0.436974376 0.644704938 -0.627223134
vn -0.842285097 0.482698023 -0.239913508
vn -0.842284977 0.482698113 -0.239913896
vn -0.842284322 0.482698768 -0.239914551
vn -0.842284679 0.482698709 -0.239913404
vn 0.469086349 -0.0558622442 -0.881383777
vn 0.469086409 -0.0558584742 -0.881383955
vn 0.469085008 -0.0558586791 -0.88138479
vn 0.469084471 -0.0558601692 -0.881384909
vn 0.855594277 -0.476416916 0.202448159
vn 0.855594337 -0.476416945 0.202448159
vn 0.855594337 -0.476416916 0.202448159
vn 0.595528007 0.130844593 0.792607129
vn 0.595528007 0.130844593 0.792607129
vn 0.595528007 0.130844608 0.792607129
vn 0.487228096 0.837684691 -0.246765539
vn 0.487228662 0.83768785 -0.246753633
vn 0.487224698 0.837686718 -0.246765405
vn 0.487225175 0.837686002 -0.246766672
vn 0.888918042 0.124994516 0.440682501
vn 0.888919055 0.124999054 0.440679193
vn 0.888919711 0.124998964 0.440677732
vn 0.888921976 0.124979883 0.440678835
vn 0.0403006151 0.767271161 -0.640055418
vn 0.0402996391 0.767271042 -0.640055597
vn 0.040299926 0.767270446 -0.640056074
vn 0.0403003171 0.767270505 -0.640055954
vn -0.0798717067 0.916962445 -0.390897036
vn -0.0798654631 0.916962445 -0.390898079
vn -0.0798758939 0.916964531 -0.390891165
vn -0.0798727497 0.916962326 -0.390896887
vn -0.0798714831 0.916962445 -0.390896678
vn -0.0798713267 0.916962326 -0.390896946
vn -0.774211884 0.545220077 0.321451277
vn -0.774211884 0.545220077 0.321451247
vn -0.774211943 0.545220077 0.321451277
vn 0.801606357 -0.0797592252 -0.592507899
vn 0.801606476 -0.0797592402 -0.592507958
vn 0.801606357 -0.0797592327 -0.592507958
vn 0.0880805776 0.841708004 -0.532700241
vn 0.0880793631 0.841707945 -0.532700419
vn 0.0880789831 0.841707349 -0.532701433
vn 0.0880794898 0.84170711 -0.532701612
vn 0.0880794525 0.841707408 -0.532701373
vn -0.546967566 0.0521897562 -0.835525572
vn -0.546967506 0.0521897487 -0.835525453
vn -0.546967506 0.0521897487 -0.835525453
g 
f 1/1/1 3/2/2 2/3/3
f 4/4/4 3/2/5 1/1/6
f 4/4/7 5/5/8 3/2/9
f 6/6/10 8/7/11 1/1/12 2/3/13 7/8/14
f 7/8/15 2/3/16 3/2/17 10/9/18 9/10/19
f 11/11/20 10/9/21 3/2/22 12/12/23
f 13/13/24 14/14/25 1/1/26 8/7/27
f 15/15/28 12/12/29 3/2/30
f 16/16/31 17/17/32 4/4/33 1/1/34
f 1/1/35 14/14/36 18/18/37
f 3/2/38 5/5/39 19/19/40 15/15/41
f 18/18/42 16/16/43 1/1/44
f 20/20/45 19/19/46 5/5/47
f 21/21/48 23/22/49 20/20/50 5/5/51 22/23/52
f 5/5/53 4/4/54 17/17/55 22/23/56
f 23/22/57 21/21/58 24/24/59
f 25/25/60 27/26/61 26/27/62
f 28/28/63 26/27/64 27/26/65
f 25/25/66 26/27/67 30/29/68 29/30/69
f 29/30/70 31/31/71 25/25/72
f 26/27/73 32/32/74 30/29/75
f 26/27/76 28/28/77 33/33/78 32/32/79
f 34/34/80 37/35/81 36/36/82 35/37/83
f 38/38/84 39/39/85 25/25/86
f 27/26/87 40/40/88 34/34/89 35/37/90
f 40/40/91 27/26/92 25/25/93 39/39/94
f 41/41/95 35/37/96 36/36/97 42/42/98
f 43/43/99 38/38/100 25/25/101
f 44/44/102 27/26/103 35/37/104 45/45/105
f 35/37/106 41/41/107 46/46/108 45/45/109
f 31/31/110 47/47/111 43/43/112 25/25/113
f 28/28/114 27/26/115 49/48/116 48/49/117
f 27/26/118 44/44/119 50/50/120 49/48/121
f 51/51/122 52/52/123 33/33/124 28/28/125 48/49/126
f 52/52/127 51/51/128 54/53/129 53/54/130
f 55/55/131 53/54/132 54/53/133
f 56/56/134 67/57/135 47/47/136 31/31/137 29/30/138 30/29/139 32/32/140 33/33/141 52/52/142 53/54/143 55/55/144 66/58/145 65/59/146 64/60/147 63/61/148 62/62/149 61/63/150 60/64/151 59/65/152 58/66/153 57/67/154
f 68/68/155 88/69/156 11/11/157 12/12/158 15/15/159 19/19/160 20/20/161 23/22/162 24/24/163 87/70/164 86/71/165 85/72/166 84/73/167 83/74/168 82/75/169 81/76/170 80/77/171 79/78/172 78/79/173 77/80/174 76/81/175 75/82/176 74/83/177 73/84/178 72/85/179 50/50/180 44/44/181 45/45/182 46/46/183 42/42/184 36/36/185 37/35/186 71/86/187 70/87/188 69/88/189
f 57/67/190 69/88/191 70/87/192 56/56/193
f 56/56/194 70/87/195 71/86/196 67/57/197
f 64/60/198 92/89/199 91/90/200 90/91/201 89/92/202 84/73/203 85/72/204 63/61/205
f 63/61/206 85/72/207 86/71/208 62/62/209
f 62/62/210 86/71/211 87/70/212 61/63/213
f 59/65/214 6/6/215 7/8/216 9/10/217 88/69/218 68/68/219 58/66/220
f 58/66/221 68/68/222 69/88/223 57/67/224
f 93/93/225 96/94/226 66/58/227 55/55/228 54/53/229 51/51/230 48/49/231 49/48/232 50/50/233 72/85/234 95/95/235 94/96/236 76/81/237 77/80/238
f 67/57/239 71/86/240 37/35/241 34/34/242 40/40/243 39/39/244 38/38/245 43/43/246 47/47/247
f 41/41/248 42/42/249 46/46/250
f 66/58/251 96/94/252 99/97/253 98/98/254 97/99/255 65/59/256
f 100/100/257 92/89/258 64/60/259 65/59/260 97/99/261
f 18/18/262 14/14/263 13/13/264 60/64/265 61/63/266 87/70/267 24/24/268 21/21/269 22/23/270 17/17/271 16/16/272
f 9/10/273 10/9/274 11/11/275 88/69/276
f 6/6/277 59/65/278 60/64/279 13/13/280 8/7/281
f 95/95/282 72/85/283 73/84/284 101/101/285
f 73/84/286 74/83/287 101/101/288
f 101/101/289 74/83/290 75/82/291
f 94/96/292 95/95/293 101/101/294
f 76/81/295 94/96/296 101/101/297 75/82/298
f 77/80/299 78/79/300 102/102/301 93/93/302
f 79/78/303 80/77/304 103/103/305
f 81/76/306 103/103/307 80/77/308
f 99/97/309 96/94/310 93/93/311 102/102/312
f 103/103/313 102/102/314 78/79/315 79/78/316
f 90/91/317 91/90/318 102/102/319 103/103/320
f 92/89/321 100/100/322 98/98/323 99/97/324 102/102/325 91/90/326
f 98/98/327 100/100/328 97/99/329
f 103/103/330 81/76/331 82/75/332
f 89/92/333 90/91/334 103/103/335 82/75/336 83/74/337
f 89/92/338 83/74/339 84/73/340
